HIERARCHY
ROOT Hips
{
	OFFSET -351.999878 89.312279 572.954773
	CHANNELS 6 Xposition Yposition Zposition Zrotation Yrotation Xrotation 
	JOINT Spine
	{
		OFFSET 0.000000 8.814246 -2.080107
		CHANNELS 3 Zrotation Yrotation Xrotation
		JOINT Spine1
		{
			OFFSET -0.000000 8.844141 -0.000000
			CHANNELS 3 Zrotation Yrotation Xrotation
			JOINT Spine2
			{
				OFFSET 0.000000 11.682268 0.000000
				CHANNELS 3 Zrotation Yrotation Xrotation
				JOINT Spine3
				{
					OFFSET 0.000000 11.746700 0.000000
					CHANNELS 3 Zrotation Yrotation Xrotation
					JOINT Neck
					{
						OFFSET 0.000000 17.658264 -0.000000
						CHANNELS 3 Zrotation Yrotation Xrotation
						JOINT Neck1
						{
							OFFSET -0.000000 5.101515 -0.000000
							CHANNELS 3 Zrotation Yrotation Xrotation
							JOINT Head
							{
								OFFSET -0.000000 5.101515 -0.000000
								CHANNELS 3 Zrotation Yrotation Xrotation
								JOINT HeadEnd
								{
									OFFSET 0.000000 11.655085 0.000000
									CHANNELS 3 Zrotation Yrotation Xrotation
									End Site
									{
										OFFSET 0.000000 0.000000 0.000000
									}
								}
							}
						}
					}
					JOINT RightShoulder
					{
						OFFSET -2.625389 11.175210 0.000000
						CHANNELS 3 Zrotation Yrotation Xrotation
						JOINT RightArm
						{
							OFFSET 0.000000 10.434715 -0.000000
							CHANNELS 3 Zrotation Yrotation Xrotation
							JOINT RightForeArm
							{
								OFFSET -0.000000 29.628420 0.000000
								CHANNELS 3 Zrotation Yrotation Xrotation
								JOINT RightHand
								{
									OFFSET -0.000000 22.857611 0.000000
									CHANNELS 3 Zrotation Yrotation Xrotation
									JOINT RightHandThumb1
									{
										OFFSET -2.867323 3.959563 2.944291
										CHANNELS 3 Zrotation Yrotation Xrotation
										JOINT RightHandThumb2
										{
											OFFSET -0.000000 3.350399 0.000000
											CHANNELS 3 Zrotation Yrotation Xrotation
											JOINT RightHandThumb3
											{
												OFFSET 0.000000 3.756509 -0.000000
												CHANNELS 3 Zrotation Yrotation Xrotation
												JOINT RightHandThumb4
												{
													OFFSET -0.000000 3.147345 0.000000
													CHANNELS 3 Zrotation Yrotation Xrotation
													End Site
													{
														OFFSET 0.000000 0.000000 0.000000
													}
												}
											}
										}
									}
									JOINT RightHandIndex1
									{
										OFFSET -0.086752 10.030893 2.345280
										CHANNELS 3 Zrotation Yrotation Xrotation
										JOINT RightHandIndex2
										{
											OFFSET 0.000000 4.061090 -0.000000
											CHANNELS 3 Zrotation Yrotation Xrotation
											JOINT RightHandIndex3
											{
												OFFSET 0.000000 3.248873 -0.000000
												CHANNELS 3 Zrotation Yrotation Xrotation
												JOINT RightHandIndex4
												{
													OFFSET 0.000000 2.639709 -0.000000
													CHANNELS 3 Zrotation Yrotation Xrotation
													End Site
													{
														OFFSET 0.000000 0.000000 0.000000
													}
												}
											}
										}
									}
									JOINT RightHandMiddle1
									{
										OFFSET 0.104102 9.502952 0.006768
										CHANNELS 3 Zrotation Yrotation Xrotation
										JOINT RightHandMiddle2
										{
											OFFSET 0.000000 4.568727 -0.000000
											CHANNELS 3 Zrotation Yrotation Xrotation
											JOINT RightHandMiddle3
											{
												OFFSET -0.000000 3.654981 0.000000
												CHANNELS 3 Zrotation Yrotation Xrotation
												JOINT RightHandMiddle4
												{
													OFFSET 0.000000 2.741236 0.000000
													CHANNELS 3 Zrotation Yrotation Xrotation
													End Site
													{
														OFFSET 0.000000 0.000000 0.000000
													}
												}
											}
										}
									}
									JOINT RightHandRing1
									{
										OFFSET 0.086752 8.921708 -2.267442
										CHANNELS 3 Zrotation Yrotation Xrotation
										JOINT RightHandRing2
										{
											OFFSET 0.000000 4.061090 -0.000000
											CHANNELS 3 Zrotation Yrotation Xrotation
											JOINT RightHandRing3
											{
												OFFSET -0.000000 3.654981 0.000000
												CHANNELS 3 Zrotation Yrotation Xrotation
												JOINT RightHandRing4
												{
													OFFSET 0.000000 2.741236 -0.000000
													CHANNELS 3 Zrotation Yrotation Xrotation
													End Site
													{
														OFFSET 0.000000 0.000000 0.000000
													}
												}
											}
										}
									}
									JOINT RightHandPinky1
									{
										OFFSET -0.173504 7.976997 -4.467199
										CHANNELS 3 Zrotation Yrotation Xrotation
										JOINT RightHandPinky2
										{
											OFFSET 0.000000 3.350399 0.000000
											CHANNELS 3 Zrotation Yrotation Xrotation
											JOINT RightHandPinky3
											{
												OFFSET 0.000000 2.842763 -0.000000
												CHANNELS 3 Zrotation Yrotation Xrotation
												JOINT RightHandPinky4
												{
													OFFSET -0.000000 2.639709 -0.000000
													CHANNELS 3 Zrotation Yrotation Xrotation
													End Site
													{
														OFFSET 0.000000 0.000000 0.000000
													}
												}
											}
										}
									}
									JOINT RightForeArmEnd
									{
										OFFSET 0.000000 0.000000 0.000000
										CHANNELS 3 Zrotation Yrotation Xrotation
										End Site
										{
											OFFSET 0.000000 0.000000 0.000000
										}
									}
								}
								JOINT RightArmEnd
								{
									OFFSET 0.000000 0.000000 0.000000
									CHANNELS 3 Zrotation Yrotation Xrotation
									End Site
									{
										OFFSET 0.000000 0.000000 0.000000
									}
								}
							}
						}
					}
					JOINT LeftShoulder
					{
						OFFSET 2.625389 11.175210 -0.000000
						CHANNELS 3 Zrotation Yrotation Xrotation
						JOINT LeftArm
						{
							OFFSET -0.000000 10.813635 0.000000
							CHANNELS 3 Zrotation Yrotation Xrotation
							JOINT LeftForeArm
							{
								OFFSET -0.000000 28.724781 0.000000
								CHANNELS 3 Zrotation Yrotation Xrotation
								JOINT LeftHand
								{
									OFFSET 0.644384 25.716167 -0.328871
									CHANNELS 3 Zrotation Yrotation Xrotation
									JOINT LeftHandThumb1
									{
										OFFSET 2.867323 3.959563 2.944291
										CHANNELS 3 Zrotation Yrotation Xrotation
										JOINT LeftHandThumb2
										{
											OFFSET -0.000000 3.350399 0.000000
											CHANNELS 3 Zrotation Yrotation Xrotation
											JOINT LeftHandThumb3
											{
												OFFSET -0.000000 3.756509 -0.000000
												CHANNELS 3 Zrotation Yrotation Xrotation
												JOINT LeftHandThumb4
												{
													OFFSET 0.000000 3.100000 -0.000000
													CHANNELS 3 Zrotation Yrotation Xrotation
													End Site
													{
														OFFSET 0.000000 0.000000 0.000000
													}
												}
											}
										}
									}
									JOINT LeftHandIndex1
									{
										OFFSET 0.086752 10.030893 2.345280
										CHANNELS 3 Zrotation Yrotation Xrotation
										JOINT LeftHandIndex2
										{
											OFFSET -0.000000 4.061090 0.000000
											CHANNELS 3 Zrotation Yrotation Xrotation
											JOINT LeftHandIndex3
											{
												OFFSET 0.000000 3.248873 0.000000
												CHANNELS 3 Zrotation Yrotation Xrotation
												JOINT LeftHandIndex4
												{
													OFFSET 0.000000 2.639709 -0.000000
													CHANNELS 3 Zrotation Yrotation Xrotation
													End Site
													{
														OFFSET 0.000000 0.000000 0.000000
													}
												}
											}
										}
									}
									JOINT LeftHandMiddle1
									{
										OFFSET -0.104102 9.502952 0.006768
										CHANNELS 3 Zrotation Yrotation Xrotation
										JOINT LeftHandMiddle2
										{
											OFFSET 0.000000 4.568727 -0.000000
											CHANNELS 3 Zrotation Yrotation Xrotation
											JOINT LeftHandMiddle3
											{
												OFFSET 0.000000 3.654981 0.000000
												CHANNELS 3 Zrotation Yrotation Xrotation
												JOINT LeftHandMiddle4
												{
													OFFSET -0.000000 2.741236 -0.000000
													CHANNELS 3 Zrotation Yrotation Xrotation
													End Site
													{
														OFFSET 0.000000 0.000000 0.000000
													}
												}
											}
										}
									}
									JOINT LeftHandRing1
									{
										OFFSET -0.086752 8.921708 -2.267442
										CHANNELS 3 Zrotation Yrotation Xrotation
										JOINT LeftHandRing2
										{
											OFFSET -0.000000 4.061090 -0.000000
											CHANNELS 3 Zrotation Yrotation Xrotation
											JOINT LeftHandRing3
											{
												OFFSET 0.000000 3.654981 0.000000
												CHANNELS 3 Zrotation Yrotation Xrotation
												JOINT LeftHandRing4
												{
													OFFSET -0.000000 2.741236 -0.000000
													CHANNELS 3 Zrotation Yrotation Xrotation
													End Site
													{
														OFFSET 0.000000 0.000000 0.000000
													}
												}
											}
										}
									}
									JOINT LeftHandPinky1
									{
										OFFSET 0.173504 7.976997 -4.467199
										CHANNELS 3 Zrotation Yrotation Xrotation
										JOINT LeftHandPinky2
										{
											OFFSET 0.000000 3.350399 0.000000
											CHANNELS 3 Zrotation Yrotation Xrotation
											JOINT LeftHandPinky3
											{
												OFFSET -0.000000 2.842763 -0.000000
												CHANNELS 3 Zrotation Yrotation Xrotation
												JOINT LeftHandPinky4
												{
													OFFSET -0.000000 2.639709 -0.000000
													CHANNELS 3 Zrotation Yrotation Xrotation
													End Site
													{
														OFFSET 0.000000 0.000000 0.000000
													}
												}
											}
										}
									}
									JOINT LeftForeArmEnd
									{
										OFFSET 0.000000 0.000000 0.000000
										CHANNELS 3 Zrotation Yrotation Xrotation
										End Site
										{
											OFFSET 0.000000 0.000000 0.000000
										}
									}
								}
								JOINT LeftArmEnd
								{
									OFFSET 0.000000 0.000000 0.000000
									CHANNELS 3 Zrotation Yrotation Xrotation
									End Site
									{
										OFFSET 0.000000 0.000000 0.000000
									}
								}
							}
						}
					}
				}
			}
		}
	}
	JOINT RightUpLeg
	{
		OFFSET -11.289943 0.000000 0.000000
		CHANNELS 3 Zrotation Yrotation Xrotation
		JOINT RightLeg
		{
			OFFSET -0.000000 -38.200325 -0.000000
			CHANNELS 3 Zrotation Yrotation Xrotation
			JOINT RightFoot
			{
				OFFSET -0.000000 -39.900856 -0.000000
				CHANNELS 3 Zrotation Yrotation Xrotation
				JOINT RightToeBase
				{
					OFFSET 0.000000 0.000000 15.261641
					CHANNELS 3 Zrotation Yrotation Xrotation
					JOINT RightToeBaseEnd
					{
						OFFSET 0.000000 0.000000 7.370709
						CHANNELS 3 Zrotation Yrotation Xrotation
						End Site
						{
							OFFSET 0.000000 0.000000 0.000000
						}
					}
				}
				JOINT RightLegEnd
				{
					OFFSET 0.000000 0.000000 0.000000
					CHANNELS 3 Zrotation Yrotation Xrotation
					End Site
					{
						OFFSET 0.000000 0.000000 0.000000
					}
				}
			}
			JOINT RightUpLegEnd
			{
				OFFSET 0.000000 0.000000 0.000000
				CHANNELS 3 Zrotation Yrotation Xrotation
				End Site
				{
					OFFSET 0.000000 0.000000 0.000000
				}
			}
		}
	}
	JOINT LeftUpLeg
	{
		OFFSET 11.315661 0.000000 -0.000000
		CHANNELS 3 Zrotation Yrotation Xrotation
		JOINT LeftLeg
		{
			OFFSET 0.000000 -38.200325 0.000000
			CHANNELS 3 Zrotation Yrotation Xrotation
			JOINT LeftFoot
			{
				OFFSET 0.000000 -39.900856 -0.000000
				CHANNELS 3 Zrotation Yrotation Xrotation
				JOINT LeftToeBase
				{
					OFFSET 0.000000 0.000000 15.261641
					CHANNELS 3 Zrotation Yrotation Xrotation
					JOINT LeftToeBaseEnd
					{
						OFFSET -0.000000 0.000000 7.539996
						CHANNELS 3 Zrotation Yrotation Xrotation
						End Site
						{
							OFFSET 0.000000 0.000000 0.000000
						}
					}
				}
				JOINT LeftLegEnd
				{
					OFFSET 0.000000 0.000000 0.000000
					CHANNELS 3 Zrotation Yrotation Xrotation
					End Site
					{
						OFFSET 0.000000 0.000000 0.000000
					}
				}
			}
			JOINT LeftUpLegEnd
			{
				OFFSET 0.000000 0.000000 0.000000
				CHANNELS 3 Zrotation Yrotation Xrotation
				End Site
				{
					OFFSET 0.000000 0.000000 0.000000
				}
			}
		}
	}
}
MOTION
Frames: 4
Frame Time: 0.016667
0.000000 88.518600 0.000000 0.068919 0.005423 -8.942666 0.442413 -0.081069 6.970063 -1.393128 0.231170 0.120594 0.170773 -1.686916 3.633184 0.138037 -0.360124 1.632820 2.669741 1.360534 7.336633 0.504304 2.812674 -2.138667 -0.849185 -0.825950 -18.014044 0.000000 -0.000000 0.000000 93.328857 -0.532019 9.249258 66.106552 -37.119999 4.142110 -0.118903 9.345548 21.275051 6.844850 17.264313 -6.195919 11.236528 -1.888869 39.607235 -0.000000 -0.000000 -27.360001 -0.000000 0.000000 -19.000000 -0.000000 0.000000 -0.000000 16.490267 0.000000 -10.411167 11.543186 -0.000000 -0.000000 11.543186 0.000000 0.000000 -0.000000 0.000000 -0.000000 15.680840 0.000000 -10.611974 10.976587 -0.000000 -0.000000 10.976587 0.000000 -0.000000 0.000000 0.000000 -0.000000 17.926443 0.000000 -9.075776 12.548511 0.000000 -0.000000 12.548511 -0.000000 -0.000000 0.000000 -0.000000 0.000000 19.209049 0.000000 -9.362017 13.446335 0.000000 0.000000 13.446335 -0.000000 0.000000 0.000000 0.000000 0.000000 0.000000 -0.000000 -0.000000 0.000000 0.000000 -0.000000 -92.264595 0.184448 4.508586 -67.528313 31.026758 -4.429011 -0.724142 -2.563973 37.835678 -1.518325 -21.259678 -14.755243 -10.637672 1.840801 39.870987 -0.000000 0.000000 -25.920000 0.000000 -0.000000 -18.000000 0.000000 0.000000 -0.000000 -13.737988 0.000000 -10.271246 -9.616591 -0.000000 0.000000 -9.616591 -0.000000 -0.000000 -0.000000 0.000000 -0.000000 -13.566374 0.000000 -10.909575 -9.496462 0.000000 -0.000000 -9.496462 -0.000000 -0.000000 0.000000 0.000000 -0.000000 -16.906538 -0.000000 -11.246544 -11.834577 -0.000000 0.000000 -11.834577 -0.000000 -0.000000 0.000000 0.000000 -0.000000 -19.165680 -0.000000 -11.938169 -13.415976 -0.000000 -0.000000 -13.415976 -0.000000 -0.000000 0.000000 0.000000 -0.000000 -0.000000 -0.000000 -0.000000 0.000000 0.000000 0.000000 -1.938380 -12.547269 14.781532 -0.051716 -0.791252 3.432337 -0.790947 -7.985099 17.498070 -0.970069 1.135202 -17.740032 0.000000 -0.000000 0.000000 -0.000000 -0.000000 -0.000000 0.000000 0.000000 0.000000 -1.007299 -7.770873 9.427107 0.095226 0.552794 9.721728 1.664590 4.975722 15.629979 0.746320 -0.643483 -19.338867 -0.000000 0.000000 -0.000000 -0.000000 0.000000 -0.000000 0.000000 -0.000000 -0.000000 
-0.007514 88.519928 -0.011878 0.089955 0.110924 -8.881492 0.415401 -0.092039 6.937961 -1.438030 0.236759 0.071759 0.226778 -1.736214 3.568118 0.204140 -0.372763 1.576795 2.665904 1.506162 7.544183 0.554405 2.968461 -2.037147 -0.851392 -0.807771 -17.943277 0.000000 0.000000 0.000000 93.274879 -0.523166 9.233103 65.841232 -37.790264 4.172615 -0.085011 8.993897 21.677477 6.697072 17.378101 -6.208782 11.236528 -1.888869 39.607235 -0.000000 -0.000000 -27.360001 0.000000 0.000000 -19.000000 -0.000000 0.000000 -0.000000 16.293652 0.000000 -10.533714 11.405556 0.000000 -0.000000 11.405556 -0.000000 -0.000000 -0.000000 0.000000 -0.000000 15.493624 0.000000 -10.691460 10.845537 0.000000 -0.000000 10.845537 -0.000000 -0.000000 -0.000000 0.000000 -0.000000 17.744476 0.000000 -9.184692 12.421134 0.000000 -0.000000 12.421134 -0.000000 0.000000 0.000000 -0.000000 -0.000000 19.035170 0.000000 -9.531614 13.324618 0.000000 -0.000000 13.324618 0.000000 -0.000000 -0.000000 0.000000 0.000000 0.000000 -0.000000 -0.000000 0.000000 0.000000 -0.000000 -92.033600 0.166054 4.521236 -67.328651 32.171257 -4.142595 -0.694627 -1.960147 38.009350 -0.942958 -20.337734 -14.967745 -10.637672 1.840801 39.870987 -0.000000 0.000000 -25.920000 -0.000000 0.000000 -18.000000 0.000000 0.000000 0.000000 -13.683656 -0.000000 -10.089543 -9.578559 0.000000 0.000000 -9.578559 -0.000000 -0.000000 -0.000000 -0.000000 0.000000 -13.549865 -0.000000 -10.761042 -9.484905 -0.000000 -0.000000 -9.484905 -0.000000 0.000000 0.000000 -0.000000 -0.000000 -16.963594 -0.000000 -11.138341 -11.874516 -0.000000 -0.000000 -11.874516 0.000000 -0.000000 0.000000 0.000000 0.000000 -19.287008 -0.000000 -11.846790 -13.500905 0.000000 -0.000000 -13.500905 -0.000000 -0.000000 0.000000 0.000000 0.000000 -0.000000 0.000000 0.000000 0.000000 0.000000 0.000000 -1.945663 -12.607368 14.721447 -0.051534 -0.791359 3.439776 -0.791204 -8.031282 17.484289 -0.973117 1.132607 -17.736689 0.000000 -0.000000 0.000000 -0.000000 -0.000000 -0.000000 -0.000000 0.000000 0.000000 -1.003461 -7.794054 9.348050 0.095515 0.554573 9.702830 1.674398 4.888914 15.666614 0.742590 -0.645537 -19.340708 -0.000000 0.000000 -0.000000 0.000000 0.000000 0.000000 0.000000 -0.000000 -0.000000 
-0.014180 88.525703 -0.028115 0.103781 0.222951 -8.781969 0.380139 -0.097845 6.876681 -1.492970 0.244343 -0.005001 0.307257 -1.798825 3.501924 0.292333 -0.383276 1.543063 2.643357 1.655058 7.751261 0.613868 3.138825 -1.934873 -0.848410 -0.788788 -17.844215 0.000000 -0.000000 0.000000 93.099205 -0.497844 9.274399 65.599121 -38.705639 4.180097 -0.048632 8.706270 22.202726 6.639019 17.176767 -6.225774 11.236528 -1.888869 39.607235 0.000000 0.000000 -27.360001 -0.000000 -0.000000 -19.000000 -0.000000 0.000000 0.000000 16.185045 -0.000000 -10.598228 11.329532 0.000000 0.000000 11.329532 0.000000 0.000000 -0.000000 0.000000 -0.000000 15.415668 0.000000 -10.725244 10.790967 0.000000 -0.000000 10.790967 -0.000000 -0.000000 -0.000000 0.000000 -0.000000 17.736147 0.000000 -9.236718 12.415302 0.000000 -0.000000 12.415302 -0.000000 0.000000 0.000000 -0.000000 0.000000 19.090490 0.000000 -9.622679 13.363344 -0.000000 -0.000000 13.363344 -0.000000 -0.000000 -0.000000 0.000000 -0.000000 0.000000 -0.000000 -0.000000 0.000000 0.000000 -0.000000 -91.643036 0.134626 4.527195 -67.202629 33.672867 -3.778071 -0.663521 -1.363657 38.271713 -0.487013 -18.978884 -15.141126 -10.937045 1.865515 39.738766 0.000000 0.000000 -26.639999 0.000000 -0.000000 -18.500000 0.000000 0.000000 0.000000 -14.363662 0.000000 -10.344511 -10.054564 -0.000000 -0.000000 -10.054564 0.000000 0.000000 0.000000 -0.000000 -0.000000 -14.116562 0.000000 -10.968126 -9.881594 -0.000000 -0.000000 -9.881594 0.000000 0.000000 0.000000 0.000000 0.000000 -17.314737 -0.000000 -11.326639 -12.120317 -0.000000 -0.000000 -12.120317 0.000000 -0.000000 0.000000 0.000000 -0.000000 -19.405088 -0.000000 -12.003574 -13.583562 0.000000 -0.000000 -13.583562 -0.000000 -0.000000 0.000000 -0.000000 -0.000000 -0.000000 -0.000000 -0.000000 0.000000 0.000000 0.000000 -1.932686 -12.656771 14.617023 -0.051363 -0.791456 3.447865 -0.794043 -8.096731 17.497412 -0.976090 1.129569 -17.742842 0.000000 -0.000000 0.000000 -0.000000 0.000000 -0.000000 0.000000 -0.000000 0.000000 -0.997317 -7.841312 9.231716 0.095790 0.556379 9.672163 1.682587 4.817290 15.722086 0.740551 -0.646475 -19.350706 -0.000000 0.000000 -0.000000 -0.000000 0.000000 -0.000000 0.000000 -0.000000 -0.000000 
-0.018959 88.536354 -0.048584 0.112630 0.338343 -8.646202 0.328048 -0.097425 6.760761 -1.547908 0.251173 -0.085161 0.413545 -1.873883 3.444601 0.404258 -0.389694 1.543420 2.598341 1.805383 7.947859 0.682724 3.322919 -1.837614 -0.827533 -0.766491 -17.722834 0.000000 0.000000 0.000000 92.751198 -0.445918 9.353438 65.357895 -39.987965 4.083760 0.001260 8.432448 23.131075 6.679199 16.312424 -6.360218 11.236528 -1.888869 39.607235 -0.000000 -0.000000 -27.360001 0.000000 -0.000000 -19.000000 -0.000000 0.000000 -0.000000 16.160870 0.000000 -10.420989 11.312610 -0.000000 0.000000 11.312610 -0.000000 -0.000000 -0.000000 0.000000 -0.000000 15.448279 0.000000 -10.545753 10.813796 -0.000000 0.000000 10.813796 0.000000 -0.000000 0.000000 0.000000 -0.000000 17.903530 0.000000 -9.019547 12.532472 -0.000000 0.000000 12.532472 -0.000000 -0.000000 0.000000 -0.000000 0.000000 19.369696 0.000000 -9.336316 13.558787 -0.000000 0.000000 13.558787 -0.000000 -0.000000 0.000000 0.000000 0.000000 0.000000 -0.000000 -0.000000 0.000000 0.000000 -0.000000 -91.160507 0.095493 4.527776 -67.014786 35.538689 -3.256173 -0.639024 -0.779341 38.598125 -0.322413 -16.925945 -15.402760 -10.937045 1.865515 39.738766 0.000000 0.000000 -26.639999 0.000000 -0.000000 -18.500000 0.000000 0.000000 -0.000000 -15.513913 -0.000000 -10.623950 -10.859739 0.000000 -0.000000 -10.859739 -0.000000 -0.000000 0.000000 0.000000 -0.000000 -15.102105 -0.000000 -11.092171 -10.571474 0.000000 0.000000 -10.571474 -0.000000 -0.000000 0.000000 -0.000000 -0.000000 -17.973434 -0.000000 -11.294376 -12.581405 0.000000 0.000000 -12.581405 -0.000000 0.000000 0.000000 0.000000 -0.000000 -19.666922 -0.000000 -11.759673 -13.766846 -0.000000 -0.000000 -13.766846 0.000000 0.000000 0.000000 -0.000000 0.000000 -0.000000 0.000000 -0.000000 0.000000 0.000000 0.000000 -1.903166 -12.695436 14.471072 -0.051202 -0.791525 3.452634 -0.799254 -8.177792 17.537418 -0.978812 1.126101 -17.768223 0.000000 -0.000000 0.000000 -0.000000 0.000000 -0.000000 0.000000 0.000000 0.000000 -0.984873 -7.909693 9.085388 0.096052 0.558047 9.620520 1.690760 4.761524 15.801442 0.738969 -0.646645 -19.369389 -0.000000 0.000000 -0.000000 -0.000000 0.000000 -0.000000 0.000000 -0.000000 -0.000000 
